<?xml version="1.0" encoding="UTF-8" standalone="no"?>
<svg
   xmlns:dc="http://purl.org/dc/elements/1.1/"
   xmlns:cc="http://creativecommons.org/ns#"
   xmlns:rdf="http://www.w3.org/1999/02/22-rdf-syntax-ns#"
   xmlns:svg="http://www.w3.org/2000/svg"
   xmlns="http://www.w3.org/2000/svg"
   xmlns:sodipodi="http://sodipodi.sourceforge.net/DTD/sodipodi-0.dtd"
   xmlns:inkscape="http://www.inkscape.org/namespaces/inkscape"
   inkscape:version="1.0 (4035a4fb49, 2020-05-01)"
   sodipodi:docname="behance.svg"
   id="svg10"
   version="1.1"
   viewBox="0 0 512 512">
  <metadata
     id="metadata16">
    <rdf:RDF>
      <cc:Work
         rdf:about="">
        <dc:format>image/svg+xml</dc:format>
        <dc:type
           rdf:resource="http://purl.org/dc/dcmitype/StillImage" />
      </cc:Work>
    </rdf:RDF>
  </metadata>
  <defs
     id="defs14" />
  <sodipodi:namedview
     inkscape:current-layer="svg10"
     inkscape:window-maximized="1"
     inkscape:window-y="-8"
     inkscape:window-x="-8"
     inkscape:cy="256"
     inkscape:cx="256"
     inkscape:zoom="1.6601562"
     showgrid="false"
     id="namedview12"
     inkscape:window-height="1017"
     inkscape:window-width="1920"
     inkscape:pageshadow="2"
     inkscape:pageopacity="0"
     guidetolerance="10"
     gridtolerance="10"
     objecttolerance="10"
     borderopacity="1"
     bordercolor="#666666"
     pagecolor="#ffffff" />
  <path
     style="fill:#ffffff"
     id="path2"
     d="m181 181h-60v60h60c16.539062 0 30-13.460938 30-30s-13.460938-30-30-30zm0 0" />
  <path
     style="fill:#ffffff"
     id="path4"
     d="m181 271h-60v60h60c16.539062 0 30-13.460938 30-30s-13.460938-30-30-30zm0 0" />
  <path
     style="fill:#ffffff"
     id="path6"
     d="m346 241c-19.554688 0-36.238281 12.539062-42.4375 30h84.875c-6.199219-17.460938-22.882812-30-42.4375-30zm0 0" />
  <path
     style="display:inline;fill:#ffffff"
     id="path8"
     d="M 436,0 H 75 C 33.648438,0 0,33.648438 0,75 v 362 c 0,41.35156 33.648438,75 75,75 h 361 c 41.35156,0 76,-33.64844 76,-75 V 75 C 512,33.648438 477.35156,0 436,0 Z M 286,151 h 120 v 30 H 286 Z m -45,150 c 0,33.08984 -26.91016,60 -60,60 H 91 V 151 h 90 c 33.08984,0 60,26.91016 60,60 0,18.00781 -8.13281,33.99609 -20.73047,45 C 232.86719,267.00391 241,282.99219 241,301 Z m 180,0 H 303.5625 c 6.19531,17.46094 22.88281,30 42.4375,30 16.01172,0 30.95312,-8.62891 38.99219,-22.51563 l 25.95703,15.03125 C 397.57812,346.62891 372.6875,361 346,361 c -41.35156,0 -75,-33.64844 -75,-75 0,-41.35156 33.64844,-75 75,-75 41.35156,0 75,33.64844 75,75 z m 0,0" />
</svg>
