<?xml version="1.0" encoding="utf-8"?>
<!-- Generator: Adobe Illustrator 23.0.1, SVG Export Plug-In . SVG Version: 6.00 Build 0)  -->
<svg version="1.1" id="Layer_1" xmlns="http://www.w3.org/2000/svg" xmlns:xlink="http://www.w3.org/1999/xlink" x="0px" y="0px"
	 viewBox="0 0 222 46.6" style="enable-background:new 0 0 222 46.6;" xml:space="preserve">
<style type="text/css">
	.st0{fill:#333333;}
</style>
<g>
	<path class="st0" d="M17.5,26.6v4.3c0,5.2-2.6,8.1-7.5,8.1c-5,0-7.5-2.9-7.5-8.1V14.1C2.4,9,5,6,10,6c5,0,7.5,2.9,7.5,8.1v3.1h-4.8
		v-3.5c0-2.3-1-3.2-2.6-3.2c-1.6,0-2.6,0.9-2.6,3.2v17.4c0,2.3,1,3.1,2.6,3.1c1.6,0,2.6-0.8,2.6-3.1v-4.6H17.5z"/>
	<path class="st0" d="M18,34c0.6,0,1.2,0,1.7,0c1.6,0,2.9-0.6,2.9-3.1V6.4h5.1v24.2c0,6.4-3.5,8.1-7.3,8.1c-0.9,0-1.6,0-2.4-0.1V34z
		"/>
	<path class="st0" d="M50.9,13.8V15c0,3.3-1,5.4-3.3,6.5c2.7,1.1,3.8,3.5,3.8,6.9V31c0,5-2.6,7.6-7.7,7.6h-8V6.4h7.6
		C48.7,6.4,50.9,8.9,50.9,13.8z M40.8,11v8.5h2c1.9,0,3-0.8,3-3.4v-1.8c0-2.3-0.8-3.3-2.6-3.3H40.8z M40.8,24.1V34h2.9
		c1.7,0,2.6-0.8,2.6-3.2V28c0-3-1-3.9-3.3-3.9H40.8z"/>
	<path class="st0" d="M52.8,14.1C52.8,9,55.5,6,60.5,6c5,0,7.7,2.9,7.7,8.1v16.7c0,5.2-2.7,8.1-7.7,8.1c-5,0-7.7-2.9-7.7-8.1V14.1z
		 M57.9,31.2c0,2.3,1,3.2,2.6,3.2c1.6,0,2.6-0.9,2.6-3.2V13.8c0-2.3-1-3.2-2.6-3.2c-1.6,0-2.6,0.9-2.6,3.2V31.2z"/>
	<path class="st0" d="M75,6.4v24.8c0,2.3,1,3.1,2.6,3.1c1.6,0,2.6-0.8,2.6-3.1V6.4H85v24.5c0,5.2-2.6,8.1-7.5,8.1
		c-5,0-7.5-2.9-7.5-8.1V6.4H75z"/>
	<path class="st0" d="M98.5,21.5l-1.8,17.2h-6.9L86.1,6.4H91l2.7,25.4l2.4-25.4h4.9l2.5,25.6l2.6-25.6h4.4L107,38.6h-6.7L98.5,21.5z
		"/>
	<path class="st0" d="M117,20h6.9v4.6H117V34h8.7v4.6h-13.8V6.4h13.8V11H117V20z"/>
	<path class="st0" d="M138.2,38.6c-0.3-0.8-0.5-1.3-0.5-4v-5.1c0-3-1-4.1-3.3-4.1h-1.7v13.1h-5.1V6.4h7.6c5.2,0,7.5,2.4,7.5,7.4v2.5
		c0,3.3-1.1,5.5-3.3,6.5c2.5,1.1,3.4,3.5,3.4,6.9v5c0,1.6,0,2.7,0.6,3.9H138.2z M132.7,11v9.9h2c1.9,0,3-0.8,3-3.4v-3.2
		c0-2.3-0.8-3.3-2.6-3.3H132.7z"/>
</g>
<g id="Digital_Portfolio">
	<path class="st0" d="M160.9,6.4c2.3,0,3.3,1.5,3.3,3.7v7.4c0,2.2-1,3.7-3.3,3.7h-3.2V6.4H160.9z M160.9,20.2c1.6,0,2.3-1.1,2.3-2.7
		V10c0-1.6-0.7-2.7-2.3-2.7h-2.2v12.9H160.9z"/>
	<path class="st0" d="M169.8,6.4v14.7h-1V6.4H169.8z"/>
	<path class="st0" d="M180.9,10v1.1h-0.9V9.9c0-1.6-0.6-2.8-2.2-2.8c-1.6,0-2.2,1.2-2.2,2.8v7.6c0,1.6,0.6,2.8,2.2,2.8
		c1.6,0,2.2-1.2,2.2-2.8v-3.2h-2v-0.9h2.9v4c0,2.1-0.9,3.7-3.2,3.7c-2.2,0-3.2-1.6-3.2-3.7V10c0-2.1,0.9-3.7,3.2-3.7
		C179.9,6.3,180.9,7.9,180.9,10z"/>
	<path class="st0" d="M186.6,6.4v14.7h-1V6.4H186.6z"/>
	<path class="st0" d="M193.8,21.1V7.3h-3V6.4h6.9v0.9h-3v13.8H193.8z"/>
	<path class="st0" d="M202.7,17.9l-0.7,3.3h-0.9l3.2-14.7h1.4l3.3,14.7h-1l-0.7-3.3H202.7z M202.9,17h4.3L205,7.5L202.9,17z"/>
	<path class="st0" d="M213.6,21.1V6.4h1v13.8h4.6v0.9H213.6z"/>
	<path class="st0" d="M160.7,24.4c2.3,0,3.1,1.4,3.1,3.6v1.6c0,2.3-1.1,3.5-3.4,3.5h-1.8v6h-1V24.4H160.7z M160.4,32.2
		c1.7,0,2.4-0.8,2.4-2.5v-1.7c0-1.6-0.5-2.6-2.2-2.6h-2.1v6.9H160.4z"/>
	<path class="st0" d="M165.3,28c0-2.1,1-3.7,3.2-3.7c2.3,0,3.3,1.6,3.3,3.7v7.5c0,2.1-1,3.7-3.3,3.7c-2.2,0-3.2-1.6-3.2-3.7V28z
		 M166.2,35.6c0,1.6,0.6,2.8,2.2,2.8c1.6,0,2.3-1.2,2.3-2.8V28c0-1.6-0.7-2.8-2.3-2.8c-1.6,0-2.2,1.2-2.2,2.8V35.6z"/>
	<path class="st0" d="M176.4,24.4c2.2,0,3.1,1.2,3.1,3.3V29c0,1.7-0.7,2.7-2.1,3c1.5,0.3,2.1,1.4,2.1,3v2.3c0,0.6,0,1.3,0.4,1.8h-1
		c-0.3-0.4-0.3-1-0.3-1.8V35c0-2-1.1-2.5-2.8-2.5h-1.5v6.6h-1V24.4H176.4z M175.8,31.7c1.7,0,2.7-0.5,2.7-2.5v-1.4
		c0-1.6-0.6-2.5-2.2-2.5h-2.1v6.4H175.8z"/>
	<path class="st0" d="M183.9,39.1V25.3h-3v-0.9h6.9v0.9h-3v13.8H183.9z"/>
	<path class="st0" d="M193.8,31.6v0.9H190v6.7h-1V24.4h5.6v0.9H190v6.3H193.8z"/>
	<path class="st0" d="M196.1,28c0-2.1,1-3.7,3.2-3.7c2.3,0,3.3,1.6,3.3,3.7v7.5c0,2.1-1,3.7-3.3,3.7c-2.2,0-3.2-1.6-3.2-3.7V28z
		 M197,35.6c0,1.6,0.6,2.8,2.2,2.8c1.6,0,2.3-1.2,2.3-2.8V28c0-1.6-0.7-2.8-2.3-2.8c-1.6,0-2.2,1.2-2.2,2.8V35.6z"/>
	<path class="st0" d="M204.1,39.1V24.4h1v13.8h4.6v0.9H204.1z"/>
	<path class="st0" d="M212.1,24.4v14.7h-1V24.4H212.1z"/>
	<path class="st0" d="M213.8,28c0-2.1,1-3.7,3.2-3.7c2.3,0,3.3,1.6,3.3,3.7v7.5c0,2.1-1,3.7-3.3,3.7c-2.2,0-3.2-1.6-3.2-3.7V28z
		 M214.7,35.6c0,1.6,0.6,2.8,2.2,2.8c1.6,0,2.3-1.2,2.3-2.8V28c0-1.6-0.7-2.8-2.3-2.8c-1.6,0-2.2,1.2-2.2,2.8V35.6z"/>
</g>
<rect id="Line" x="149.3" y="6.4" class="st0" width="1" height="32.8"/>
</svg>
