<?xml version="1.0" encoding="UTF-8" standalone="no"?>
<svg
   xmlns:dc="http://purl.org/dc/elements/1.1/"
   xmlns:cc="http://creativecommons.org/ns#"
   xmlns:rdf="http://www.w3.org/1999/02/22-rdf-syntax-ns#"
   xmlns:svg="http://www.w3.org/2000/svg"
   xmlns="http://www.w3.org/2000/svg"
   xmlns:sodipodi="http://sodipodi.sourceforge.net/DTD/sodipodi-0.dtd"
   xmlns:inkscape="http://www.inkscape.org/namespaces/inkscape"
   sodipodi:docname="close.svg"
   inkscape:version="1.0 (4035a4fb49, 2020-05-01)"
   id="svg8"
   version="1.1"
   viewBox="0 0 14.552083 14.552084"
   height="55"
   width="55">
  <defs
     id="defs2">
    <marker
       inkscape:isstock="true"
       style="overflow:visible"
       id="Arrow1Lstart"
       refX="0.0"
       refY="0.0"
       orient="auto"
       inkscape:stockid="Arrow1Lstart">
      <path
         transform="scale(0.8) translate(12.5,0)"
         style="fill-rule:evenodd;stroke:#ffffff;stroke-width:1pt;stroke-opacity:0.5;fill:#000000;fill-opacity:0.8"
         d="M 0.0,0.0 L 5.0,-5.0 L -12.5,0.0 L 5.0,5.0 L 0.0,0.0 z "
         id="path1117" />
    </marker>
    <filter
       height="1.0153846"
       y="-0.0076923172"
       width="1.0153846"
       x="-0.01"
       id="filter1785"
       inkscape:label="Drop Shadow"
       style="color-interpolation-filters:sRGB;">
      <feFlood
         id="feFlood1775"
         result="flood"
         flood-color="rgb(0,0,0)"
         flood-opacity="0.501961" />
      <feComposite
         id="feComposite1777"
         result="composite1"
         operator="in"
         in2="flood"
         in="SourceGraphic" />
      <feOffset
         id="feOffset1781"
         result="offset"
         dy="0"
         dx="0" />
      <feComposite
         id="feComposite1783"
         result="composite2"
         operator="over"
         in2="offset"
         in="SourceGraphic" />
    </filter>
  </defs>
  <sodipodi:namedview
     inkscape:window-maximized="1"
     inkscape:window-y="-8"
     inkscape:window-x="-8"
     inkscape:window-height="1017"
     inkscape:window-width="1920"
     borderlayer="true"
     units="px"
     showgrid="false"
     inkscape:document-rotation="0"
     inkscape:current-layer="layer1"
     inkscape:document-units="px"
     inkscape:cy="36.804136"
     inkscape:cx="53.540891"
     inkscape:zoom="1"
     inkscape:pageshadow="2"
     inkscape:pageopacity="0.0"
     borderopacity="1.0"
     bordercolor="#666666"
     pagecolor="#ffffff"
     id="base" />
  <metadata
     id="metadata5">
    <rdf:RDF>
      <cc:Work
         rdf:about="">
        <dc:format>image/svg+xml</dc:format>
        <dc:type
           rdf:resource="http://purl.org/dc/dcmitype/StillImage" />
        <dc:title></dc:title>
      </cc:Work>
    </rdf:RDF>
  </metadata>
  <g
     style="opacity:1"
     id="layer1"
     inkscape:groupmode="layer"
     inkscape:label="close">
    <path
       transform="matrix(0.52083201,0,0,0.52083201,0.38586796,0.38586792)"
       d="M 14.398521,13.229213 23.57034,4.0573544 c 0.322915,-0.322916 0.322915,-0.84646 0,-1.169334 -0.322916,-0.322874 -0.846459,-0.322916 -1.169334,0 L 13.229146,12.05988 4.0573281,2.8880204 c -0.322916,-0.322916 -0.84646,-0.322916 -1.169334,0 -0.322874,0.322915 -0.322916,0.84646 0,1.169334 l 9.1718179,9.1718176 -9.1718179,9.17186 c -0.322916,0.322915 -0.322916,0.846459 0,1.169334 0.161437,0.161437 0.373062,0.242134 0.584688,0.242134 0.211625,0 0.423209,-0.0807 0.584687,-0.242134 l 9.1717769,-9.171819 9.171818,9.171819 c 0.161437,0.161437 0.373062,0.242134 0.584688,0.242134 0.211625,0 0.42321,-0.0807 0.584688,-0.242134 0.322915,-0.322916 0.322915,-0.846459 0,-1.169334 z"
       id="path2"
       style="display:inline;opacity:1;mix-blend-mode:normal;fill:#ffffff;fill-opacity:0.8;stroke:#808080;stroke-width:0.25400065;stroke-linecap:square;stroke-linejoin:round;stroke-miterlimit:4;stroke-dasharray:none;stroke-opacity:0.15000001;paint-order:stroke fill markers;filter:url(#filter1785)" />
  </g>
</svg>
