<?xml version="1.0" encoding="utf-8"?>
<!-- Generator: Adobe Illustrator 24.3.0, SVG Export Plug-In . SVG Version: 6.00 Build 0)  -->
<svg version="1.1" id="photography" xmlns="http://www.w3.org/2000/svg" xmlns:xlink="http://www.w3.org/1999/xlink" x="0px"
	 y="0px" viewBox="0 0 512 512" style="enable-background:new 0 0 512 512;" xml:space="preserve">
<style type="text/css">
	.st0{fill:#FFFFFF;}
</style>
<path class="st0" d="M443.4,118.6l-53.7-0.3l-51.5-76.8c-3.1-4.8-8.4-7.9-14.1-7.9H185.4c-5.6,0-10.7,3.1-13.8,7.6l-53.2,77.1
	l-49.8,0.3C30.9,118.6,0,149.5,0,187.2v222c0,37.7,30.9,69.2,68.6,69.2h374.7c37.7,0,68.6-31.5,68.6-69.2v-222
	C512,149.5,481.1,118.6,443.4,118.6z M478.2,409.2c0,19.1-15.8,35.4-34.9,35.4H68.6c-19.1,0-34.9-16.3-34.9-35.4v-222
	c0-19.1,15.8-34.9,34.9-34.9h58.8c5.6,0,10.7-3.1,13.8-7.6l53.2-77.1h120.7l51.2,76.5c3.1,4.5,8.4,7.6,13.8,7.6l63,0.6
	c19.1,0,34.9,15.8,34.9,34.9v222L478.2,409.2L478.2,409.2z"/>
<path class="st0" d="M257.4,159.1c-66.1,0-119.6,53.7-119.6,119.6s53.7,119.6,119.6,119.6S377,344.5,377,278.6
	S323.2,159.1,257.4,159.1z M257.4,364.4c-47.3,0-85.8-38.5-85.8-85.8s38.5-85.8,85.8-85.8s85.8,38.5,85.8,85.8
	S304.7,364.4,257.4,364.4z"/>
<circle class="st0" cx="417.5" cy="208.6" r="6.5"/>
<path class="st0" d="M417.5,185.2c-12.9,0-23.3,10.4-23.3,23.3s10.4,23.3,23.3,23.3s23.3-10.4,23.3-23.3S430.4,185.2,417.5,185.2z
	 M417.5,219c-5.9,0-10.4-4.8-10.4-10.4s4.8-10.4,10.4-10.4c5.6,0,10.4,4.8,10.4,10.4S423.4,219,417.5,219z"/>
</svg>
