<?xml version="1.0" encoding="utf-8"?>
<!-- Generator: Adobe Illustrator 24.3.0, SVG Export Plug-In . SVG Version: 6.00 Build 0)  -->
<svg version="1.1" id="videography" xmlns="http://www.w3.org/2000/svg" xmlns:xlink="http://www.w3.org/1999/xlink" x="0px"
	 y="0px" viewBox="0 0 512 512" style="enable-background:new 0 0 512 512;" xml:space="preserve">
<style type="text/css">
	.st0{fill:#FFFFFF;}
</style>
<path class="st0" d="M504.9,213.3c-4.4-2.7-9.9-3-14.5-0.7L390,261.9V256c0-20.7-14.1-38.2-33.2-43.4c20.4-19.2,33.2-46.4,33.2-76.6
	c0-57.9-47.1-105-105-105c-38.2,0-71.6,20.5-90,51c-18.4-30.5-51.8-51-90-51C47.1,31,0,78.1,0,136c0,30.2,12.8,57.4,33.2,76.6
	C14.1,217.8,0,235.3,0,256v180c0,24.8,20.2,45,45,45h300c24.8,0,45-20.2,45-45v-5.9l100.4,49.4c4.6,2.3,10.1,2,14.5-0.7
	c4.4-2.7,7.1-7.6,7.1-12.7V226C512,220.8,509.3,216,504.9,213.3z M285,61c41.4,0,75,33.6,75,75s-33.6,75-75,75s-75-33.6-75-75
	S243.6,61,285,61z M211.6,211h-33.2c6.4-6.2,12-13.3,16.6-21C199.6,197.7,205.2,204.8,211.6,211z M30,136c0-41.4,33.6-75,75-75
	s75,33.6,75,75s-33.6,75-75,75S30,177.4,30,136z M360,436c0,8.3-6.7,15-15,15H45c-8.3,0-15-6.7-15-15V256c0-8.3,6.7-15,15-15h300
	c8.3,0,15,6.7,15,15V436z M482,441.9l-92-45.2V295.3l92-45.2V441.9z"/>
<path class="st0" d="M105,91c-24.8,0-45,20.2-45,45s20.2,45,45,45s45-20.2,45-45S129.8,91,105,91z M105,151c-8.3,0-15-6.7-15-15
	s6.7-15,15-15s15,6.7,15,15S113.3,151,105,151z"/>
<path class="st0" d="M285,91c-24.8,0-45,20.2-45,45s20.2,45,45,45s45-20.2,45-45S309.8,91,285,91z M285,151c-8.3,0-15-6.7-15-15
	s6.7-15,15-15s15,6.7,15,15S293.3,151,285,151z"/>
<circle class="st0" cx="315" cy="286" r="15"/>
<circle class="st0" cx="255" cy="286" r="15"/>
<path class="st0" d="M195,331H75c-8.3,0-15,6.7-15,15v60c0,8.3,6.7,15,15,15h120c8.3,0,15-6.7,15-15v-60
	C210,337.7,203.3,331,195,331z M180,391H90v-30h90V391z"/>
</svg>
