<?xml version="1.0" encoding="utf-8"?>
<!-- Generator: Adobe Illustrator 24.3.0, SVG Export Plug-In . SVG Version: 6.00 Build 0)  -->
<svg version="1.1" id="Capa_1" xmlns="http://www.w3.org/2000/svg" xmlns:xlink="http://www.w3.org/1999/xlink" x="0px" y="0px"
	 viewBox="0 0 512 512" style="enable-background:new 0 0 512 512;" xml:space="preserve">
<style type="text/css">
	.st0{fill:#FFFFFF;}
</style>
<g>
	<g>
		<path class="st0" d="M92.8,95.3c0-5.5,4.5-10,10-10h116.4c5.5,0,10,4.5,10,10v8.8c0,5.5-4.5,10-10,10H102.8c-5.5,0-10-4.5-10-10
			V95.3z"/>
	</g>
	<path class="st0" d="M413.1,117.7c4.8,0,9.4-1.9,12.8-5.3c3.3-3.4,5.3-8,5.3-12.7c0-4.8-1.9-9.4-5.3-12.8c-3.4-3.3-8-5.3-12.8-5.3
		c-4.7,0-9.4,1.9-12.7,5.3c-3.3,3.4-5.3,8-5.3,12.8c0,4.7,1.9,9.4,5.3,12.7C403.7,115.8,408.4,117.7,413.1,117.7z"/>
	<path class="st0" d="M348.2,117.7c4.8,0,9.4-1.9,12.8-5.3c3.3-3.4,5.3-8,5.3-12.7c0-4.8-1.9-9.4-5.3-12.8c-3.4-3.3-8-5.3-12.8-5.3
		c-4.7,0-9.4,1.9-12.7,5.3c-3.4,3.4-5.3,8-5.3,12.8c0,4.7,1.9,9.4,5.3,12.7C338.8,115.8,343.5,117.7,348.2,117.7z"/>
	<path class="st0" d="M283.3,117.7c4.8,0,9.4-1.9,12.8-5.3c3.3-3.4,5.3-8,5.3-12.7c0-4.8-1.9-9.4-5.3-12.8c-3.4-3.3-8-5.3-12.8-5.3
		c-4.7,0-9.4,1.9-12.7,5.3c-3.4,3.4-5.3,8-5.3,12.8c0,4.7,1.9,9.4,5.3,12.7C273.9,115.8,278.5,117.7,283.3,117.7z"/>
	<g>
		<path class="st0" d="M10,25.7c-5.5,0-10,4.5-10,10v440.7c0,5.5,4.5,10,10,10h492c5.5,0,10-4.5,10-10V35.7c0-5.5-4.5-10-10-10H10z
			 M465.9,61.7c5.5,0,10,4.5,10,10v55.9c0,5.5-4.5,10-10,10H46.1c-5.5,0-10-4.5-10-10V71.7c0-5.5,4.5-10,10-10H465.9z M36.1,450.3
			c0,0,0-4.5,0-10V183.7c0-5.5,4.5-10,10-10h419.9c5.5,0,10,4.5,10,10v256.6c0,5.5-4.5,10-10,10H46.1
			C40.6,450.3,36.1,450.3,36.1,450.3z"/>
	</g>
	<g>
		<path class="st0" d="M157.2,340.8c-3.9,3.9-7.2,11.6-7.4,17.1l-1.5,49.7c-0.2,5.5,4.2,9.9,9.7,9.7l49.7-1.5
			c5.5-0.2,13.2-3.5,17.1-7.4l137.7-137.7c3.9-3.9,3.9-10.3,0-14.1l-53.4-53.4c-3.9-3.9-10.3-3.9-14.1,0L157.2,340.8z M212.4,379.9
			c-3.9,3.9-11.6,7.2-17.1,7.4l-7.6,0.2c-5.5,0.2-9.9-4.2-9.7-9.7l0.2-7.6c0.2-5.5,3.5-13.2,7.4-17.1l62.1-62.1
			c3.9-3.9,10.3-3.9,14.1,0l12.6,12.6c3.9,3.9,3.9,10.3,0,14.1L212.4,379.9z M321.7,256.5c3.9,3.9,3.9,10.3,0,14.1L309,283.3
			c-3.9,3.9-10.3,3.9-14.1,0l-12.6-12.6c-3.9-3.9-3.9-10.3,0-14.1l12.6-12.6c3.9-3.9,10.3-3.9,14.1,0L321.7,256.5z"/>
	</g>
</g>
</svg>
